<svg width="616" height="454" viewBox="0 0 616 454" fill="none" xmlns="http://www.w3.org/2000/svg">
<g clip-path="url(#clip0_350_2457)">
<path d="M549.403 243.254C546.718 274.296 533.203 304.293 513.922 329.102C513.116 330.14 512.301 331.168 511.476 332.186C509.619 334.477 507.714 336.725 505.762 338.93C503.372 341.647 500.913 344.301 498.385 346.893C496.327 349.025 494.221 351.112 492.066 353.154C490.404 354.748 488.722 356.309 487.022 357.838C466.561 376.349 443.056 391.625 418.839 404.985C371.578 431.046 319.776 450.791 265.893 453.665C212.011 456.54 155.775 441.084 116.265 404.293C63.0164 354.711 48.1544 272.013 69.7739 202.5C84.153 156.254 113.501 114.419 153.443 87.0951C193.04 60.0095 242.992 47.8171 290.268 55.7865C328.008 32.822 377.414 32.3826 418.443 49.3808C440.336 58.4527 459.982 71.9412 477.219 88.2408C485.112 95.7209 492.498 103.72 499.328 112.185C500.026 113.043 500.717 113.907 501.4 114.779C504.264 118.403 507.035 122.102 509.712 125.876C513.555 131.287 517.204 136.819 520.658 142.47C521.609 144.027 522.551 145.59 523.472 147.168C524.088 148.227 524.717 149.294 525.329 150.367C525.343 150.389 525.352 150.413 525.357 150.439C534.936 167.307 542.766 185.306 546.847 204.12C547.567 207.45 548.171 210.793 548.639 214.165V214.171C549.049 217.032 549.359 219.907 549.567 222.796C550.059 229.608 550.004 236.449 549.402 243.253L549.403 243.254Z" fill="#243497"/>
<path opacity="0.191" d="M549.403 243.254C546.718 274.296 533.203 304.293 513.922 329.102C513.116 330.14 512.301 331.168 511.476 332.186C509.619 334.477 507.714 336.725 505.762 338.93C503.372 341.647 500.913 344.301 498.385 346.893C496.327 349.025 494.221 351.112 492.066 353.154C490.404 354.748 488.722 356.309 487.022 357.838C466.561 376.349 443.056 391.625 418.839 404.985C371.578 431.046 319.776 450.791 265.893 453.665C212.011 456.54 155.775 441.084 116.265 404.293C63.0164 354.711 48.1544 272.013 69.7739 202.5C84.153 156.254 113.501 114.419 153.443 87.0951C193.04 60.0095 242.992 47.8171 290.268 55.7865C328.008 32.822 377.414 32.3826 418.443 49.3808C440.336 58.4527 459.982 71.9412 477.219 88.2408C485.112 95.7209 492.498 103.72 499.328 112.185C500.026 113.043 500.717 113.907 501.4 114.779C504.264 118.403 507.035 122.102 509.712 125.876C513.555 131.287 517.204 136.819 520.658 142.47C521.609 144.027 522.551 145.59 523.472 147.168C524.088 148.227 524.717 149.294 525.329 150.367C525.343 150.389 525.352 150.413 525.357 150.439C534.936 167.307 542.766 185.306 546.847 204.12C547.567 207.45 548.171 210.793 548.639 214.165V214.171C549.049 217.032 549.359 219.907 549.567 222.796C550.059 229.608 550.004 236.449 549.402 243.253L549.403 243.254Z" fill="#6C63FF"/>
<path opacity="0.3" d="M408.807 290.183L301.963 201.065L405.762 293.752C405.963 294.09 406.242 294.376 406.575 294.586C406.909 294.795 407.287 294.922 407.679 294.956C408.072 294.989 408.466 294.929 408.83 294.779C409.195 294.63 409.518 294.395 409.774 294.096C410.029 293.796 410.21 293.44 410.301 293.056C410.392 292.673 410.39 292.273 410.295 291.89C410.201 291.508 410.017 291.153 409.758 290.856C409.499 290.559 409.174 290.328 408.808 290.182L408.807 290.183Z" fill="#F0F0F0"/>
<path d="M163.786 244.832C199.16 244.832 227.837 216.12 227.837 180.702C227.837 145.284 199.16 116.572 163.786 116.572C128.411 116.572 99.7344 145.284 99.7344 180.702C99.7344 216.12 128.411 244.832 163.786 244.832Z" fill="#F2F2F2"/>
<path d="M220.641 176.379C220.632 188.219 217.029 199.778 210.31 209.521C203.591 219.265 194.072 226.734 183.016 230.937C171.96 235.141 159.89 235.881 148.404 233.059C136.919 230.237 126.562 223.986 118.705 215.136C110.849 206.285 105.865 195.253 104.414 183.502C102.963 171.751 105.114 159.836 110.581 149.336C116.049 138.837 124.574 130.249 135.027 124.712C145.481 119.175 157.368 116.949 169.113 118.331C183.319 119.992 196.419 126.825 205.92 137.528C215.421 148.231 220.66 162.059 220.641 176.379Z" fill="white"/>
<path d="M152.27 174.936C162.206 174.936 170.262 166.872 170.262 156.923C170.262 146.974 162.206 138.909 152.27 138.909C142.333 138.909 134.278 146.974 134.278 156.923C134.278 166.872 142.333 174.936 152.27 174.936Z" fill="#E4E4E4"/>
<path d="M218.365 160.188C214.466 162.064 210.023 162.47 205.849 161.333C201.675 160.196 198.05 157.592 195.637 153.997C193.225 150.402 192.187 146.057 192.713 141.759C193.239 137.46 195.294 133.495 198.502 130.589C208.044 138.142 214.988 148.491 218.365 160.19V160.188Z" fill="#F2F2F2"/>
<path d="M181.778 202.319C185.355 202.319 188.255 199.416 188.255 195.834C188.255 192.253 185.355 189.349 181.778 189.349C178.201 189.349 175.301 192.253 175.301 195.834C175.301 199.416 178.201 202.319 181.778 202.319Z" fill="#E4E4E4"/>
<path d="M155.148 232.583C155.148 233.153 155.073 233.719 154.925 234.269C150.627 233.731 146.405 232.706 142.338 231.215C142.675 229.649 143.579 228.264 144.875 227.326C146.171 226.387 147.768 225.962 149.358 226.132C150.948 226.302 152.42 227.055 153.489 228.246C154.558 229.438 155.149 230.983 155.148 232.584V232.583Z" fill="#F2F2F2"/>
<path d="M117.006 173.497C117.006 176.787 115.757 179.954 113.512 182.357C111.268 184.76 108.195 186.219 104.916 186.438C103.432 177.874 103.865 169.086 106.183 160.709C109.207 161.214 111.953 162.776 113.935 165.117C115.917 167.459 117.005 170.428 117.006 173.497Z" fill="#F2F2F2"/>
<path d="M436.453 152.892C437.924 152.892 439.117 151.698 439.117 150.224C439.117 148.751 437.924 147.557 436.453 147.557C434.981 147.557 433.788 148.751 433.788 150.224C433.788 151.698 434.981 152.892 436.453 152.892Z" fill="#6C63FF"/>
<path d="M411.872 87.9871C412.731 87.9871 413.428 87.2895 413.428 86.4289C413.428 85.5683 412.731 84.8706 411.872 84.8706C411.012 84.8706 410.315 85.5683 410.315 86.4289C410.315 87.2895 411.012 87.9871 411.872 87.9871Z" fill="#F0F0F0"/>
<path d="M162.144 393.505C163.004 393.505 163.701 392.807 163.701 391.946C163.701 391.086 163.004 390.388 162.144 390.388C161.285 390.388 160.588 391.086 160.588 391.946C160.588 392.807 161.285 393.505 162.144 393.505Z" fill="#F0F0F0"/>
<path d="M420.71 240.491C421.569 240.491 422.266 239.793 422.266 238.932C422.266 238.072 421.569 237.374 420.71 237.374C419.85 237.374 419.153 238.072 419.153 238.932C419.153 239.793 419.85 240.491 420.71 240.491Z" fill="#F0F0F0"/>
<path d="M219.83 255.212C221.301 255.212 222.494 254.017 222.494 252.544C222.494 251.07 221.301 249.876 219.83 249.876C218.358 249.876 217.165 251.07 217.165 252.544C217.165 254.017 218.358 255.212 219.83 255.212Z" fill="#6C63FF"/>
<path d="M123.393 312.699C130.342 312.699 135.976 307.058 135.976 300.101C135.976 293.143 130.342 287.503 123.393 287.503C116.444 287.503 110.811 293.143 110.811 300.101C110.811 307.058 116.444 312.699 123.393 312.699Z" fill="#6C63FF"/>
<path d="M192.37 315.684C193.229 315.684 193.926 314.987 193.926 314.126C193.926 313.266 193.229 312.568 192.37 312.568C191.51 312.568 190.813 313.266 190.813 314.126C190.813 314.987 191.51 315.684 192.37 315.684Z" fill="#F0F0F0"/>
<path d="M350.7 72.1356C351.559 72.1356 352.256 71.4379 352.256 70.5773C352.256 69.7167 351.559 69.019 350.7 69.019C349.84 69.019 349.144 69.7167 349.144 70.5773C349.144 71.4379 349.84 72.1356 350.7 72.1356Z" fill="#F0F0F0"/>
<path d="M257.861 404.313C258.721 404.313 259.417 403.615 259.417 402.755C259.417 401.894 258.721 401.196 257.861 401.196C257.001 401.196 256.305 401.894 256.305 402.755C256.305 403.615 257.001 404.313 257.861 404.313Z" fill="#F0F0F0"/>
<path d="M234.832 86.5462C235.691 86.5462 236.388 85.8485 236.388 84.9879C236.388 84.1273 235.691 83.4297 234.832 83.4297C233.972 83.4297 233.275 84.1273 233.275 84.9879C233.275 85.8485 233.972 86.5462 234.832 86.5462Z" fill="#F0F0F0"/>
<path d="M275.133 162.205C275.993 162.205 276.69 161.508 276.69 160.647C276.69 159.787 275.993 159.089 275.133 159.089C274.274 159.089 273.577 159.787 273.577 160.647C273.577 161.508 274.274 162.205 275.133 162.205Z" fill="#F0F0F0"/>
<path d="M213.442 347.854C214.302 347.854 214.998 347.157 214.998 346.296C214.998 345.435 214.302 344.738 213.442 344.738C212.583 344.738 211.886 345.435 211.886 346.296C211.886 347.157 212.583 347.854 213.442 347.854Z" fill="#F0F0F0"/>
<path d="M395.521 357.942C396.381 357.942 397.078 357.245 397.078 356.384C397.078 355.523 396.381 354.826 395.521 354.826C394.662 354.826 393.965 355.523 393.965 356.384C393.965 357.245 394.662 357.942 395.521 357.942Z" fill="#F0F0F0"/>
<path d="M314.917 267.151C315.776 267.151 316.473 266.453 316.473 265.592C316.473 264.732 315.776 264.034 314.917 264.034C314.057 264.034 313.36 264.732 313.36 265.592C313.36 266.453 314.057 267.151 314.917 267.151Z" fill="#F0F0F0"/>
<path d="M355.938 161.95C356.798 161.95 357.495 161.252 357.495 160.391C357.495 159.531 356.798 158.833 355.938 158.833C355.079 158.833 354.382 159.531 354.382 160.391C354.382 161.252 355.079 161.95 355.938 161.95Z" fill="#F0F0F0"/>
<path d="M430.519 213.965C432.224 213.965 433.606 212.581 433.606 210.874C433.606 209.168 432.224 207.784 430.519 207.784C428.814 207.784 427.433 209.168 427.433 210.874C427.433 212.581 428.814 213.965 430.519 213.965Z" fill="#E90B23"/>
<path d="M305.296 111.645C307 111.645 308.382 110.262 308.382 108.555C308.382 106.848 307 105.465 305.296 105.465C303.591 105.465 302.209 106.848 302.209 108.555C302.209 110.262 303.591 111.645 305.296 111.645Z" fill="#6C63FF"/>
<path d="M305.296 324.21C307 324.21 308.382 322.827 308.382 321.12C308.382 319.413 307 318.03 305.296 318.03C303.591 318.03 302.209 319.413 302.209 321.12C302.209 322.827 303.591 324.21 305.296 324.21Z" fill="#E90B23"/>
<path d="M517.196 384.008C507.904 384.008 497.719 383.657 486.642 382.954C429.347 379.311 355.13 366.646 277.665 347.292C200.2 327.938 128.742 304.206 76.4534 280.472C50.982 268.906 31.4332 257.964 18.3502 247.94C4.49859 237.329 -1.56046 228.078 0.340891 220.449C4.04579 205.585 36.8508 202.33 63.7192 202.223L63.7285 204.382C26.832 204.536 5.06462 210.425 2.43707 220.97C-0.910504 234.402 26.393 255.37 77.346 278.501C129.52 302.185 200.847 325.87 278.185 345.195C355.524 364.521 429.61 377.159 486.779 380.796C542.61 384.347 576.553 378.68 579.901 365.248C582.68 354.096 564.357 337.668 528.305 318.986L529.298 317.066C555.491 330.636 585.899 350.105 581.993 365.767C580.091 373.401 570.403 378.712 553.192 381.564C543.39 383.193 531.338 384.008 517.196 384.008Z" fill="#6C63FF"/>
<path d="M172.769 410.256C147.149 410.256 123.329 409.376 102.008 407.6C74.1382 405.278 52.0528 401.545 36.366 396.506C19.7583 391.169 10.9477 384.496 10.1784 376.67C8.67902 361.424 38.4861 347.325 63.7551 338.182L64.4889 340.216C29.7887 352.771 11.2634 365.642 12.3269 376.459C13.6815 390.236 46.4342 400.8 102.187 405.445C159.275 410.201 234.405 408.516 313.731 400.696C393.057 392.876 467.076 379.868 522.143 364.059C575.925 348.621 605.993 331.861 604.635 318.088C603.511 306.65 580.74 297.342 540.518 291.873L540.808 289.731C570.034 293.703 605.204 301.809 606.784 317.874C607.554 325.7 600.211 333.966 584.961 342.441C570.56 350.446 549.622 358.417 522.738 366.135C467.554 381.979 393.4 395.018 313.946 402.848C264.102 407.76 215.894 410.256 172.769 410.256Z" fill="#6C63FF"/>
<path d="M603.418 325.669C610.368 325.669 616.001 320.029 616.001 313.071C616.001 306.113 610.368 300.473 603.418 300.473C596.469 300.473 590.836 306.113 590.836 313.071C590.836 320.029 596.469 325.669 603.418 325.669Z" fill="#6C63FF"/>
<path d="M238.541 25.1958C245.491 25.1958 251.124 19.5556 251.124 12.5979C251.124 5.64028 245.491 0 238.541 0C231.592 0 225.959 5.64028 225.959 12.5979C225.959 19.5556 231.592 25.1958 238.541 25.1958Z" fill="#E6E6E6"/>
<path d="M14.0024 324.949C20.9515 324.949 26.5849 319.308 26.5849 312.351C26.5849 305.393 20.9515 299.753 14.0024 299.753C7.0533 299.753 1.41992 305.393 1.41992 312.351C1.41992 319.308 7.0533 324.949 14.0024 324.949Z" fill="#E6E6E6"/>
<path d="M91.7268 85.8798C95.9808 85.8798 99.4293 82.4271 99.4293 78.1679C99.4293 73.9088 95.9808 70.4561 91.7268 70.4561C87.4729 70.4561 84.0244 73.9088 84.0244 78.1679C84.0244 82.4271 87.4729 85.8798 91.7268 85.8798Z" fill="#6C63FF"/>
<path d="M55.7435 378.429C59.9974 378.429 63.4459 374.976 63.4459 370.717C63.4459 366.458 59.9974 363.005 55.7435 363.005C51.4895 363.005 48.041 366.458 48.041 370.717C48.041 374.976 51.4895 378.429 55.7435 378.429Z" fill="#E90B23"/>
<path d="M581.109 252.329C585.363 252.329 588.811 248.876 588.811 244.617C588.811 240.358 585.363 236.905 581.109 236.905C576.855 236.905 573.406 240.358 573.406 244.617C573.406 248.876 576.855 252.329 581.109 252.329Z" fill="#E90B23"/>
<path d="M464.521 443.842C471.47 443.842 477.103 438.202 477.103 431.244C477.103 424.286 471.47 418.646 464.521 418.646C457.572 418.646 451.938 424.286 451.938 431.244C451.938 438.202 457.572 443.842 464.521 443.842Z" fill="#E6E6E6"/>
<path d="M467.748 287.503C469.22 287.503 470.413 286.309 470.413 284.835C470.413 283.362 469.22 282.167 467.748 282.167C466.277 282.167 465.084 283.362 465.084 284.835C465.084 286.309 466.277 287.503 467.748 287.503Z" fill="#6C63FF"/>
<path d="M527.364 253.238C528.224 253.238 528.92 252.54 528.92 251.679C528.92 250.819 528.224 250.121 527.364 250.121C526.504 250.121 525.808 250.819 525.808 251.679C525.808 252.54 526.504 253.238 527.364 253.238Z" fill="#F0F0F0"/>
<path d="M466.192 237.386C467.052 237.386 467.748 236.688 467.748 235.828C467.748 234.967 467.052 234.27 466.192 234.27C465.333 234.27 464.636 234.967 464.636 235.828C464.636 236.688 465.333 237.386 466.192 237.386Z" fill="#F0F0F0"/>
<path d="M466.192 181.175C467.052 181.175 467.748 180.477 467.748 179.617C467.748 178.756 467.052 178.059 466.192 178.059C465.333 178.059 464.636 178.756 464.636 179.617C464.636 180.477 465.333 181.175 466.192 181.175Z" fill="#F0F0F0"/>
<path d="M471.43 327.199C472.29 327.199 472.987 326.501 472.987 325.641C472.987 324.78 472.29 324.083 471.43 324.083C470.571 324.083 469.874 324.78 469.874 325.641C469.874 326.501 470.571 327.199 471.43 327.199Z" fill="#F0F0F0"/>
<path d="M496.353 130.615C498.058 130.615 499.44 129.232 499.44 127.525C499.44 125.818 498.058 124.435 496.353 124.435C494.648 124.435 493.267 125.818 493.267 127.525C493.267 129.232 494.648 130.615 496.353 130.615Z" fill="#E90B23"/>
<path opacity="0.3" d="M176.029 85.285L225.934 43.6592L177.452 86.9527C177.358 87.1101 177.227 87.2428 177.072 87.3398C176.916 87.4368 176.74 87.4954 176.557 87.5108C176.375 87.5261 176.191 87.4977 176.022 87.428C175.852 87.3583 175.702 87.2492 175.583 87.1097C175.464 86.9703 175.379 86.8045 175.337 86.626C175.295 86.4475 175.295 86.2615 175.339 86.0833C175.382 85.9052 175.468 85.7399 175.588 85.6012C175.707 85.4625 175.859 85.3544 176.029 85.2857V85.285Z" fill="#F0F0F0"/>
<path opacity="0.3" d="M172.541 341.189L116.576 395.686L174.353 343.101C174.554 343.009 174.73 342.87 174.866 342.695C175.002 342.521 175.095 342.317 175.137 342.1C175.179 341.882 175.169 341.658 175.106 341.446C175.044 341.233 174.933 341.038 174.78 340.878C174.628 340.717 174.44 340.595 174.231 340.522C174.023 340.449 173.8 340.427 173.581 340.457C173.362 340.487 173.153 340.57 172.972 340.697C172.791 340.824 172.644 340.993 172.541 341.189Z" fill="#F0F0F0"/>
<path d="M228.123 433.912C229.594 433.912 230.787 432.717 230.787 431.244C230.787 429.771 229.594 428.576 228.123 428.576C226.651 428.576 225.458 429.771 225.458 431.244C225.458 432.717 226.651 433.912 228.123 433.912Z" fill="#6C63FF"/>
<path d="M311.468 419.81C313.173 419.81 314.555 418.426 314.555 416.72C314.555 415.013 313.173 413.629 311.468 413.629C309.764 413.629 308.382 415.013 308.382 416.72C308.382 418.426 309.764 419.81 311.468 419.81Z" fill="#6C63FF"/>
<path d="M335.075 434.416C335.934 434.416 336.631 433.719 336.631 432.858C336.631 431.997 335.934 431.3 335.075 431.3C334.215 431.3 333.519 431.997 333.519 432.858C333.519 433.719 334.215 434.416 335.075 434.416Z" fill="#F0F0F0"/>
<path d="M335.075 378.205C335.934 378.205 336.631 377.507 336.631 376.647C336.631 375.786 335.934 375.088 335.075 375.088C334.215 375.088 333.519 375.786 333.519 376.647C333.519 377.507 334.215 378.205 335.075 378.205Z" fill="#F0F0F0"/>
</g>
<defs>
<clipPath id="clip0_350_2457">
<rect width="616" height="454" fill="white"/>
</clipPath>
</defs>
</svg>
