<svg width="188" height="197" viewBox="0 0 188 197" fill="none" xmlns="http://www.w3.org/2000/svg">
<g clip-path="url(#clip0_1481_18864)">
<path d="M72.7248 197C112.89 197 145.45 191.24 145.45 184.134C145.45 177.029 112.89 171.269 72.7248 171.269C32.56 171.269 0 177.029 0 184.134C0 191.24 32.56 197 72.7248 197Z" fill="#243497"/>
<path d="M72.7248 197C112.89 197 145.45 191.24 145.45 184.134C145.45 177.029 112.89 171.269 72.7248 171.269C32.56 171.269 0 177.029 0 184.134C0 191.24 32.56 197 72.7248 197Z" fill="black" fill-opacity="0.2"/>
<path d="M116.926 142.35C156.18 142.35 188.001 110.484 188.001 71.175C188.001 31.8661 156.18 0 116.926 0C77.6727 0 45.8516 31.8661 45.8516 71.175C45.8516 110.484 77.6727 142.35 116.926 142.35Z" fill="#243497"/>
<path d="M116.926 142.35C156.18 142.35 188.001 110.484 188.001 71.175C188.001 31.8661 156.18 0 116.926 0C77.6727 0 45.8516 31.8661 45.8516 71.175C45.8516 110.484 77.6727 142.35 116.926 142.35Z" fill="black" fill-opacity="0.2"/>
<path opacity="0.05" d="M116.926 129.932C149.331 129.932 175.601 103.626 175.601 71.1752C175.601 38.7245 149.331 12.418 116.926 12.418C84.5214 12.418 58.252 38.7245 58.252 71.1752C58.252 103.626 84.5214 129.932 116.926 129.932Z" fill="black"/>
<path opacity="0.05" d="M116.925 119.332C143.483 119.332 165.013 97.7714 165.013 71.1752C165.013 44.579 143.483 23.0186 116.925 23.0186C90.366 23.0186 68.8359 44.579 68.8359 71.1752C68.8359 97.7714 90.366 119.332 116.925 119.332Z" fill="black"/>
<path opacity="0.05" d="M116.926 105.702C135.968 105.702 151.405 90.2439 151.405 71.1749C151.405 52.1059 135.968 36.6475 116.926 36.6475C97.8839 36.6475 82.4473 52.1059 82.4473 71.1749C82.4473 90.2439 97.8839 105.702 116.926 105.702Z" fill="black"/>
<path d="M46.4809 77.5449C46.4809 77.5449 40.893 93.296 43.3765 98.8918C45.86 104.488 49.7922 109.876 49.7922 109.876C49.7922 109.876 48.3435 78.5812 46.4809 77.5449Z" fill="#A6ACB6"/>
<path opacity="0.1" d="M46.4809 77.5449C46.4809 77.5449 40.893 93.296 43.3765 98.8918C45.86 104.488 49.7922 109.876 49.7922 109.876C49.7922 109.876 48.3435 78.5812 46.4809 77.5449Z" fill="#A6ACB6"/>
<path d="M50.4121 114.021C50.4121 114.021 49.9982 117.959 49.7912 118.166C49.5843 118.373 49.9982 118.788 49.7912 119.409C49.5843 120.031 49.3773 120.86 49.7912 121.067C50.2051 121.275 47.5147 139.513 47.5147 139.513C47.5147 139.513 40.892 148.217 43.5825 161.896L44.4103 175.782C44.4103 175.782 50.826 176.196 50.826 173.916C50.826 173.916 50.4121 171.222 50.4121 169.979C50.4121 168.735 51.4469 168.735 50.826 168.113C50.2051 167.492 50.2051 167.077 50.2051 167.077C50.2051 167.077 51.2399 166.248 51.033 166.041C50.826 165.834 52.8956 151.119 52.8956 151.119C52.8956 151.119 55.1722 148.839 55.1722 147.596V146.352C55.1722 146.352 56.2069 143.658 56.2069 143.451C56.2069 143.243 61.7948 130.601 61.7948 130.601L64.0714 139.72L66.5549 152.777C66.5549 152.777 67.7966 164.59 70.2801 169.15C70.2801 169.15 74.6263 184.072 74.6263 183.657C74.6263 183.243 81.8698 182.207 81.6629 180.341C81.4559 178.476 77.3167 152.362 77.3167 152.362L78.3515 113.606L50.4121 114.021Z" fill="#2F2E41"/>
<path d="M44.8248 174.746C44.8248 174.746 39.2369 185.73 42.9622 186.145C46.6875 186.559 48.1362 186.559 49.7918 184.901C50.697 183.995 52.53 182.779 54.0058 181.862C54.8802 181.328 55.5866 180.558 56.044 179.64C56.5013 178.722 56.6911 177.694 56.5916 176.673C56.4824 175.659 56.1041 174.824 55.1728 174.746C52.6893 174.539 49.7918 172.259 49.7918 172.259L44.8248 174.746Z" fill="#2F2E41"/>
<path d="M75.6608 182.828C75.6608 182.828 70.0729 193.812 73.7981 194.227C77.5234 194.641 78.9721 194.641 80.6278 192.983C81.5329 192.077 83.3659 190.861 84.8417 189.944C85.7162 189.41 86.4226 188.64 86.8799 187.722C87.3373 186.804 87.5271 185.776 87.4275 184.755C87.3184 183.741 86.94 182.906 86.0087 182.828C83.5252 182.621 80.6278 180.341 80.6278 180.341L75.6608 182.828Z" fill="#2F2E41"/>
<path d="M69.7564 59.5686C74.5612 59.5686 78.4562 55.6681 78.4562 50.8566C78.4562 46.0451 74.5612 42.1445 69.7564 42.1445C64.9517 42.1445 61.0566 46.0451 61.0566 50.8566C61.0566 55.6681 64.9517 59.5686 69.7564 59.5686Z" fill="#FFB8B8"/>
<path d="M64.1622 53.7197C64.1622 53.7197 57.9481 65.1699 57.451 65.1699C56.9539 65.1699 68.6364 68.9036 68.6364 68.9036C68.6364 68.9036 71.8677 57.9513 72.3649 56.9556L64.1622 53.7197Z" fill="#FFB8B8"/>
<path d="M73.6957 66.2499C73.6957 66.2499 61.2782 59.4106 60.0365 59.6179C58.7947 59.8251 45.5493 71.4312 45.7563 76.198C45.9633 80.9647 47.6189 88.8403 47.6189 88.8403C47.6189 88.8403 48.2398 110.809 49.4816 111.016C50.7233 111.223 49.2746 114.954 49.6885 114.954C50.1024 114.954 78.6628 114.954 78.8697 114.332C79.0767 113.71 73.6957 66.2499 73.6957 66.2499Z" fill="#D9D9D9"/>
<path d="M80.6294 115.472C80.6294 115.472 84.5616 127.492 81.2503 127.078C77.9389 126.663 76.4902 116.715 76.4902 116.715L80.6294 115.472Z" fill="#FFB8B8"/>
<path d="M70.0734 65.5241C70.0734 65.5241 62.4159 67.1821 63.6577 77.5447C64.8994 87.9072 67.176 98.2698 67.176 98.2698L74.8335 115.057L75.6613 118.166L81.2492 116.715L77.11 92.674C77.11 92.674 75.6613 66.9749 73.7987 66.1459C72.6241 65.6444 71.3469 65.4313 70.0734 65.5241Z" fill="#A6ACB6"/>
<path opacity="0.1" d="M65.416 97.959L74.9362 114.953L66.9153 97.0459L65.416 97.959Z" fill="#A6ACB6"/>
<path d="M78.4166 48.2916L78.4454 47.6258L79.7679 47.9554C79.7537 47.7417 79.6934 47.5336 79.5911 47.3455C79.4887 47.1574 79.3469 46.9938 79.1753 46.866L80.584 46.7871C79.4019 45.1049 77.8916 43.6801 76.1443 42.5988C74.3971 41.5174 72.4491 40.8019 70.418 40.4955C67.3709 40.0532 63.978 40.6932 61.8885 42.9578C60.875 44.0562 60.2382 45.4531 59.7852 46.8782C58.9509 49.5029 58.7809 52.6316 60.5206 54.7651C62.2888 56.9334 65.3773 57.3582 68.1599 57.6266C69.139 57.721 70.165 57.8088 71.0723 57.4284C71.1733 56.3863 71.0401 55.3347 70.6824 54.3508C70.5335 54.0462 70.4623 53.7094 70.4753 53.3705C70.599 52.5416 71.7032 52.3327 72.5327 52.4447C73.3622 52.5567 74.3596 52.7281 74.9047 52.0919C75.2801 51.6538 75.258 51.0157 75.3077 50.4405C75.4431 48.8745 78.4024 48.6199 78.4166 48.2916Z" fill="#2F2E41"/>
<path d="M131.777 185.905C137.376 185.905 141.914 181.36 141.914 175.754C141.914 170.147 137.376 165.603 131.777 165.603C126.179 165.603 121.641 170.147 121.641 175.754C121.641 181.36 126.179 185.905 131.777 185.905Z" fill="#6C63FF"/>
<path d="M12.7304 182.364C18.3288 182.364 22.8671 177.819 22.8671 172.213C22.8671 166.606 18.3288 162.062 12.7304 162.062C7.13209 162.062 2.59375 166.606 2.59375 172.213C2.59375 177.819 7.13209 182.364 12.7304 182.364Z" fill="#6C63FF"/>
<path d="M12.7297 166.075C16.7657 166.075 20.0375 162.798 20.0375 158.757C20.0375 154.715 16.7657 151.438 12.7297 151.438C8.69371 151.438 5.42188 154.715 5.42188 158.757C5.42188 162.798 8.69371 166.075 12.7297 166.075Z" fill="#6C63FF"/>
<path d="M12.7292 152.619C15.5934 152.619 17.9154 150.293 17.9154 147.425C17.9154 144.557 15.5934 142.231 12.7292 142.231C9.86491 142.231 7.54297 144.557 7.54297 147.425C7.54297 150.293 9.86491 152.619 12.7292 152.619Z" fill="#6C63FF"/>
</g>
<defs>
<clipPath id="clip0_1481_18864">
<rect width="188" height="197" fill="white"/>
</clipPath>
</defs>
</svg>
