<svg width="355" height="224" viewBox="0 0 355 224" fill="none" xmlns="http://www.w3.org/2000/svg">
<g clip-path="url(#clip0_876_28577)">
<path d="M91.2047 64.3167C108.986 64.3167 123.4 49.9189 123.4 32.1584C123.4 14.3978 108.986 0 91.2047 0C73.4239 0 59.0098 14.3978 59.0098 32.1584C59.0098 49.9189 73.4239 64.3167 91.2047 64.3167Z" fill="#E90B23"/>
<path d="M355 14.1372V98.7195C355 167.669 299.043 223.56 230.018 223.556H0V138.974C0 93.7759 24.0488 54.1844 60.0663 32.2768C66.2729 28.4981 72.7999 25.2716 79.5721 22.6345C83.5576 21.0793 87.6217 19.7334 91.7479 18.6022C91.8285 18.5754 91.9128 18.5524 91.9933 18.5333C93.2124 18.2014 94.4392 17.8874 95.6736 17.5913C95.7427 17.5721 95.8078 17.5568 95.8768 17.5415C103.485 15.7308 111.246 14.6372 119.059 14.2751C119.983 14.2329 120.907 14.1985 121.839 14.1793C122.172 14.1678 122.51 14.1602 122.851 14.1602C123.556 14.1449 124.265 14.1372 124.978 14.1372H355Z" fill="#243497"/>
<path opacity="0.199" d="M355 14.1372V98.7195C355 167.669 299.043 223.56 230.018 223.556H0V138.974C0 93.7759 24.0488 54.1844 60.0663 32.2768C66.2729 28.4981 72.7999 25.2716 79.5721 22.6345C83.5576 21.0793 87.6217 19.7334 91.7479 18.6022C91.8285 18.5754 91.9128 18.5524 91.9933 18.5333C93.2124 18.2014 94.4392 17.8874 95.6736 17.5913C95.7427 17.5721 95.8078 17.5568 95.8768 17.5415C103.485 15.7308 111.246 14.6372 119.059 14.2751C119.983 14.2329 120.907 14.1985 121.839 14.1793C122.172 14.1678 122.51 14.1602 122.851 14.1602C123.556 14.1449 124.265 14.1372 124.978 14.1372H355Z" fill="#6C63FF"/>
<path d="M161.786 178.346C72.6217 178.346 0.307151 198.771 0.00390625 224H323.568C323.264 198.771 250.95 178.346 161.786 178.346Z" fill="#D6D6E3"/>
<g opacity="0.1">
<path d="M134.947 217.341C151.885 217.341 165.616 213.532 165.616 208.832C165.616 204.132 151.885 200.322 134.947 200.322C118.009 200.322 104.277 204.132 104.277 208.832C104.277 213.532 118.009 217.341 134.947 217.341Z" fill="#243497"/>
</g>
<g opacity="0.1">
<path d="M201.269 202.024C218.207 202.024 231.939 198.214 231.939 193.514C231.939 188.815 218.207 185.005 201.269 185.005C184.331 185.005 170.6 188.815 170.6 193.514C170.6 198.214 184.331 202.024 201.269 202.024Z" fill="#243497"/>
</g>
<g opacity="0.1">
<path d="M134.946 216.49C150.191 216.49 162.549 213.061 162.549 208.832C162.549 204.602 150.191 201.173 134.946 201.173C119.702 201.173 107.344 204.602 107.344 208.832C107.344 213.061 119.702 216.49 134.946 216.49Z" fill="#243497"/>
</g>
<g opacity="0.1">
<path d="M201.269 201.173C216.513 201.173 228.871 197.744 228.871 193.514C228.871 189.284 216.513 185.855 201.269 185.855C186.024 185.855 173.666 189.284 173.666 193.514C173.666 197.744 186.024 201.173 201.269 201.173Z" fill="#243497"/>
</g>
<path d="M52.9043 50.9143C54.3864 50.9143 55.5879 49.7142 55.5879 48.2338C55.5879 46.7533 54.3864 45.5532 52.9043 45.5532C51.4222 45.5532 50.2207 46.7533 50.2207 48.2338C50.2207 49.7142 51.4222 50.9143 52.9043 50.9143Z" fill="#F2F2F2"/>
<path d="M283.693 155.838C285.175 155.838 286.377 154.638 286.377 153.157C286.377 151.677 285.175 150.477 283.693 150.477C282.211 150.477 281.01 151.677 281.01 153.157C281.01 154.638 282.211 155.838 283.693 155.838Z" fill="#F2F2F2"/>
<path d="M157.182 69.678C158.664 69.678 159.865 68.4778 159.865 66.9974C159.865 65.517 158.664 64.3169 157.182 64.3169C155.7 64.3169 154.498 65.517 154.498 66.9974C154.498 68.4778 155.7 69.678 157.182 69.678Z" fill="#F2F2F2"/>
<path d="M290.211 52.4458C291.058 52.4458 291.745 51.76 291.745 50.9141C291.745 50.0681 291.058 49.3823 290.211 49.3823C289.364 49.3823 288.678 50.0681 288.678 50.9141C288.678 51.76 289.364 52.4458 290.211 52.4458Z" fill="#6C63FF"/>
<path d="M59.0393 129.033C59.8863 129.033 60.5728 128.347 60.5728 127.501C60.5728 126.655 59.8863 125.969 59.0393 125.969C58.1924 125.969 57.5059 126.655 57.5059 127.501C57.5059 128.347 58.1924 129.033 59.0393 129.033Z" fill="#6C63FF"/>
<path d="M36.0374 159.79H35.3389V159.093H35.2024V159.79H34.5039V159.927H35.2024V160.625H35.3389V159.927H36.0374V159.79Z" fill="#F2F2F2"/>
<path d="M260.307 103.116H259.608V102.418H259.472V103.116H258.773V103.252H259.472V103.95H259.608V103.252H260.307V103.116Z" fill="#F2F2F2"/>
<path d="M318.198 91.6284H317.499V90.9307H317.363V91.6284H316.664V91.7647H317.363V92.4624H317.499V91.7647H318.198V91.6284Z" fill="#F2F2F2"/>
<path d="M193.602 122.263H192.903V121.565H192.767V122.263H192.068V122.399H192.767V123.097H192.903V122.399H193.602V122.263Z" fill="#F2F2F2"/>
<path d="M301.328 126.092H300.63V125.395H300.493V126.092H299.795V126.229H300.493V126.926H300.63V126.229H301.328V126.092Z" fill="#F2F2F2"/>
<path d="M171.366 142.559H170.667V141.861H170.531V142.559H169.832V142.695H170.531V143.393H170.667V142.695H171.366V142.559Z" fill="#F2F2F2"/>
<path d="M220.438 143.324H219.739V142.626H219.603V143.324H218.904V143.46H219.603V144.158H219.739V143.46H220.438V143.324Z" fill="#F2F2F2"/>
<path d="M36.803 78.2255H36.1045V77.5278H35.968V78.2255H35.2695V78.3619H35.968V79.0596H36.1045V78.3619H36.803V78.2255Z" fill="#F2F2F2"/>
<path d="M234.526 84.6299L224.387 107.965L226.37 111.267L225.709 112.368L230.337 114.789V113.469L232.101 113.028L239.594 99.3793L234.526 84.6299Z" fill="#D6D6E3"/>
<path d="M226.592 112.148C226.592 112.148 219.098 123.816 227.473 125.577C235.848 127.338 229.016 113.249 229.016 113.249L226.592 112.148Z" fill="#D6D6E3"/>
<path d="M237.391 106.864L234.746 115.45L233.644 126.457L231.66 130.419L233.864 148.251L237.391 151.774L238.934 169.385V177.312L243.121 184.577L237.728 192.219C237.473 192.579 237.321 193 237.287 193.439C237.253 193.877 237.339 194.317 237.535 194.711C237.731 195.105 238.031 195.438 238.402 195.676C238.772 195.914 239.2 196.046 239.641 196.061C240.831 196.092 242.401 195.754 244.442 194.701C250.834 191.399 250.615 188.317 250.615 188.317C250.615 188.317 254.582 188.317 254.802 185.235C255.023 182.153 252.378 160.139 252.378 160.139L249.953 150.673V124.916H250.835L251.276 146.93L253.26 155.076L253.48 158.599L256.345 193.822C256.345 193.822 269.128 197.345 269.789 194.482C270.451 191.62 264.941 189.859 264.941 189.859L268.247 183.475V171.146L267.145 168.503L268.467 153.944V147.15L270.231 144.949V127.337L268.027 120.513L267.365 114.789L263.838 105.982C263.838 105.982 247.749 100.7 237.391 106.864Z" fill="#F2F2F2"/>
<path d="M266.041 57.1121C266.041 59.76 265.411 62.3701 264.205 64.7278C262.998 67.0854 261.248 69.1234 259.1 70.674C256.951 72.2247 254.464 73.2437 251.844 73.6474C249.224 74.051 246.546 73.8278 244.029 72.996C241.512 72.1642 239.229 70.7476 237.367 68.8627C235.506 66.9778 234.118 64.6784 233.32 62.1535C232.521 59.6287 232.333 56.9505 232.773 54.3392C233.212 51.7279 234.266 49.2581 235.847 47.1328L235.851 47.1282C237.952 44.3052 240.891 42.2155 244.249 41.1561C247.607 40.0968 251.213 40.1216 254.557 41.2271C257.9 42.3327 260.809 44.4626 262.871 47.3143C264.932 50.1659 266.042 53.5941 266.041 57.1117L266.041 57.1121Z" fill="#6C63FF"/>
<path d="M268.815 51.5128L262.735 57.112C252.467 30.4878 236.134 46.8425 235.852 47.1286C237.54 44.8613 239.775 43.0579 242.349 41.8866C244.923 40.7153 247.752 40.2143 250.573 40.4303C256.306 40.8699 266.127 46.4347 268.813 51.5128H268.815Z" fill="#F2F2F2"/>
<path d="M261.806 45.9947L264.102 53.9559C264.102 53.9559 259.336 68.2252 237.233 68.7226L236.509 70.761L234.084 71.4215L232.982 76.0447L236.068 105.324C236.068 105.324 234.746 108.186 236.95 107.966C236.95 107.966 251.495 103.123 264.058 107.526C264.058 107.526 266.703 108.626 266.041 106.205C266.041 106.205 274.859 100.701 274.196 94.9777C273.533 89.254 274.857 62.6167 274.857 62.6167C274.857 62.6167 276.18 54.9117 272.212 53.1506C272.213 53.1495 266.386 45.0037 261.806 45.9947Z" fill="#F2F2F2"/>
<path d="M256.973 101.622C256.973 101.622 243.165 103.007 246.987 110.655C250.809 118.304 257.616 104.203 257.616 104.203L256.973 101.622Z" fill="#D6D6E3"/>
<path d="M264.058 67.4568C264.058 67.4568 261.633 70.3188 262.515 74.9416C263.397 79.5644 266.702 89.9112 266.702 89.9112L255.021 100.698L258.548 105.541L274.415 97.398L277.942 95.1965C277.066 86.2924 274.884 77.5653 271.466 69.2949L270.891 67.8991C270.891 67.8991 266.702 66.138 264.058 67.4568Z" fill="#D6D6E3"/>
<path d="M184.401 72.0986H183.702V71.4009H183.566V72.0986H182.867V72.2349H183.566V72.9326H183.702V72.2349H184.401V72.0986Z" fill="#F2F2F2"/>
<path d="M247.274 50.6542H246.575V49.9565H246.439V50.6542H245.74V50.7906H246.439V51.4883H246.575V50.7906H247.274V50.6542Z" fill="#F2F2F2"/>
<path d="M240.373 57.1645H239.675V56.4668H239.538V57.1645H238.84V57.3008H239.538V57.9985H239.675V57.3008H240.373V57.1645Z" fill="#F2F2F2"/>
<path d="M213.153 40.958C214 40.958 214.686 40.2722 214.686 39.4263C214.686 38.5803 214 37.8945 213.153 37.8945C212.306 37.8945 211.619 38.5803 211.619 39.4263C211.619 40.2722 212.306 40.958 213.153 40.958Z" fill="#F2F2F2"/>
<path d="M324.335 14.1372H323.568C323.623 22.4313 326.958 30.3674 332.846 36.2162C338.734 42.0649 346.697 45.3522 355.001 45.3616V44.5957C346.9 44.5869 339.132 41.3805 333.387 35.6753C327.643 29.97 324.39 22.2283 324.335 14.1372Z" fill="#6C63FF"/>
<path d="M310.15 14.1372H309.383C309.441 26.1881 314.271 37.7262 322.818 46.2314C331.366 54.7366 342.935 59.5176 355 59.5301V58.7643C343.139 58.751 331.765 54.0504 323.362 45.689C314.958 37.3276 310.209 25.9847 310.15 14.1372Z" fill="#6C63FF"/>
<path d="M295.577 14.1372H294.811C294.906 47.2073 321.869 74.0816 355 74.0816V73.3157C322.29 73.3157 295.673 46.7861 295.577 14.1372Z" fill="#6C63FF"/>
<path d="M91.625 135.542C93.1071 135.542 94.3086 134.342 94.3086 132.862C94.3086 131.381 93.1071 130.181 91.625 130.181C90.1429 130.181 88.9414 131.381 88.9414 132.862C88.9414 134.342 90.1429 135.542 91.625 135.542Z" fill="#F2F2F2"/>
<path d="M128.045 77.5962H127.347V78.2939H127.21V77.5962H126.512V77.4599H127.21V76.7622H127.347V77.4599H128.045V77.5962Z" fill="#F2F2F2"/>
<path d="M105.811 57.3008H105.112V57.9985H104.976V57.3008H104.277V57.1645H104.976V56.4668H105.112V57.1645H105.811V57.3008Z" fill="#F2F2F2"/>
<path d="M118.844 127.76H118.146V128.458H118.009V127.76H117.311V127.624H118.009V126.926H118.146V127.624H118.844V127.76Z" fill="#F2F2F2"/>
</g>
<defs>
<clipPath id="clip0_876_28577">
<rect width="355" height="224" fill="white"/>
</clipPath>
</defs>
</svg>
